<svg
      xmlns="http://www.w3.org/2000/svg"
      viewBox="0 0 24 24"
      fill="currentColor"
      className="h-5 w-5"
    >
      <path d="M12 .5C5.7.5.5 5.7.5 12c0 5.1 3.3 9.4 7.9 10.9.6.1.8-.3.8-.6v-2.1c-3.2.7-3.9-1.6-3.9-1.6-.5-1.2-1.2-1.5-1.2-1.5-1-.7.1-.7.1-.7 1.1.1 1.6 1.1 1.6 1.1 1 .1 1.7-.7 1.9-1.2.1-.7.4-1 .7-1.3-2.6-.3-5.3-1.3-5.3-5.8 0-1.3.5-2.4 1.2-3.3-.1-.3-.5-1.6.1-3.3 0 0 1-.3 3.3 1.2a11 11 0 0 1 6 0C17.8 3.8 18.8 4 18.8 4c.6 1.7.2 3 .1 3.3.8.9 1.2 2 1.2 3.3 0 4.5-2.7 5.5-5.3 5.8.4.3.8 1 .8 2v2.9c0 .3.2.7.8.6 4.6-1.5 7.9-5.8 7.9-10.9C23.5 5.7 18.3.5 12 .5z" />
    </svg>